<?xml version="1.0" encoding="UTF-8" standalone="no"?><!-- Generator: Gravit.io --><svg xmlns="http://www.w3.org/2000/svg" xmlns:xlink="http://www.w3.org/1999/xlink" style="isolation:isolate" viewBox="0 0 512 256" width="512pt" height="256pt"><defs><clipPath id="_clipPath_VmIJ3shbr5alO8AAurk0W5hm5UP7RZs8"><rect width="512" height="256"/></clipPath></defs><g clip-path="url(#_clipPath_VmIJ3shbr5alO8AAurk0W5hm5UP7RZs8)"><defs><filter id="oyuTvbPHS5zYhFXYHpFFoiXRDa8g3fCR" x="-200%" y="-200%" width="400%" height="400%" filterUnits="objectBoundingBox" color-interpolation-filters="sRGB"><feGaussianBlur xmlns="http://www.w3.org/2000/svg" in="SourceGraphic" stdDeviation="4.293609062839028"/><feOffset xmlns="http://www.w3.org/2000/svg" dx="0" dy="0" result="pf_100_offsetBlur"/><feFlood xmlns="http://www.w3.org/2000/svg" flood-color="#000000" flood-opacity="0.65"/><feComposite xmlns="http://www.w3.org/2000/svg" in2="pf_100_offsetBlur" operator="in" result="pf_100_dropShadow"/><feBlend xmlns="http://www.w3.org/2000/svg" in="SourceGraphic" in2="pf_100_dropShadow" mode="normal"/></filter></defs><g filter="url(#oyuTvbPHS5zYhFXYHpFFoiXRDa8g3fCR)"><path d=" M 424.308 96.7 L 424.308 96.7 L 458.738 96.7 L 458.738 96.7 Q 465.008 96.7 469.463 101.155 L 469.463 101.155 L 469.463 101.155 Q 473.918 105.61 473.918 111.88 L 473.918 111.88 L 473.918 145.32 L 473.918 145.32 Q 473.918 151.59 469.463 156.045 L 469.463 156.045 L 469.463 156.045 Q 465.008 160.5 458.738 160.5 L 458.738 160.5 L 424.308 160.5 L 424.308 160.5 Q 418.038 160.5 413.583 156.045 L 413.583 156.045 L 413.583 156.045 Q 409.128 151.59 409.128 145.32 L 409.128 145.32 L 409.128 111.88 L 409.128 111.88 Q 409.128 105.61 413.583 101.155 L 413.583 101.155 L 413.583 101.155 Q 418.038 96.7 424.308 96.7 Z  M 458.738 111.11 L 458.738 111.11 L 424.308 111.11 L 424.308 111.11 Q 423.538 111.11 423.538 111.88 L 423.538 111.88 L 423.538 145.32 L 423.538 145.32 Q 423.538 146.09 424.308 146.09 L 424.308 146.09 L 458.738 146.09 L 458.738 146.09 Q 459.508 146.09 459.508 145.32 L 459.508 145.32 L 459.508 111.88 L 459.508 111.88 Q 459.508 111.11 458.738 111.11 Z " fill="rgb(236,236,236)"/></g><defs><filter id="8qWUdb4FSPhlEbBSCoWwrGC6DW68G83p" x="-200%" y="-200%" width="400%" height="400%" filterUnits="objectBoundingBox" color-interpolation-filters="sRGB"><feGaussianBlur xmlns="http://www.w3.org/2000/svg" in="SourceGraphic" stdDeviation="4.293609062839028"/><feOffset xmlns="http://www.w3.org/2000/svg" dx="0" dy="0" result="pf_100_offsetBlur"/><feFlood xmlns="http://www.w3.org/2000/svg" flood-color="#000000" flood-opacity="0.65"/><feComposite xmlns="http://www.w3.org/2000/svg" in2="pf_100_offsetBlur" operator="in" result="pf_100_dropShadow"/><feBlend xmlns="http://www.w3.org/2000/svg" in="SourceGraphic" in2="pf_100_dropShadow" mode="normal"/></filter></defs><g filter="url(#8qWUdb4FSPhlEbBSCoWwrGC6DW68G83p)"><path d=" M 114.878 96.59 L 114.878 96.59 L 114.878 102.75 L 100.248 102.75 L 100.248 96.59 L 100.248 96.59 Q 100.248 95.82 99.478 95.82 L 99.478 95.82 L 50.968 95.82 L 50.968 95.82 Q 50.198 95.82 50.198 96.59 L 50.198 96.59 L 50.198 145.21 L 50.198 145.21 Q 50.198 145.98 50.968 145.98 L 50.968 145.98 L 99.478 145.98 L 99.478 145.98 Q 100.248 145.98 100.248 145.21 L 100.248 145.21 L 100.248 130.25 L 82.318 130.25 L 82.318 115.73 L 114.878 115.73 L 114.878 145.21 L 114.878 145.21 Q 114.878 151.59 110.368 156.045 L 110.368 156.045 L 110.368 156.045 Q 105.858 160.5 99.478 160.5 L 99.478 160.5 L 50.968 160.5 L 50.968 160.5 Q 44.588 160.5 40.133 156.045 L 40.133 156.045 L 40.133 156.045 Q 35.678 151.59 35.678 145.21 L 35.678 145.21 L 35.678 96.59 L 35.678 96.59 Q 35.678 90.21 40.133 85.755 L 40.133 85.755 L 40.133 85.755 Q 44.588 81.3 50.968 81.3 L 50.968 81.3 L 99.478 81.3 L 99.478 81.3 Q 105.858 81.3 110.368 85.755 L 110.368 85.755 L 110.368 85.755 Q 114.878 90.21 114.878 96.59 Z  M 126.538 96.7 L 176.148 96.7 L 176.148 96.7 Q 182.418 96.7 186.873 101.155 L 186.873 101.155 L 186.873 101.155 Q 191.328 105.61 191.328 111.88 L 191.328 111.88 L 191.328 160.5 L 141.718 160.5 L 141.718 160.5 Q 135.448 160.5 130.993 156.045 L 130.993 156.045 L 130.993 156.045 Q 126.538 151.59 126.538 145.32 L 126.538 145.32 L 126.538 121.34 L 176.918 121.34 L 176.918 111.88 L 176.918 111.88 Q 176.918 111.11 176.148 111.11 L 176.148 111.11 L 126.538 111.11 L 126.538 96.7 L 126.538 96.7 Z  M 141.718 146.09 L 176.918 146.09 L 176.918 135.86 L 140.948 135.86 L 140.948 145.32 L 140.948 145.32 Q 140.948 146.09 141.718 146.09 L 141.718 146.09 L 141.718 146.09 Z  M 216.188 96.7 L 216.188 96.7 L 251.608 96.7 L 251.608 111.11 L 216.188 111.11 L 216.188 111.11 Q 215.418 111.11 215.418 111.88 L 215.418 111.88 L 215.418 160.5 L 201.008 160.5 L 201.008 111.88 L 201.008 111.88 Q 201.008 105.61 205.463 101.155 L 205.463 101.155 L 205.463 101.155 Q 209.918 96.7 216.188 96.7 Z  M 298.468 96.7 L 298.468 111.11 L 273.608 111.11 L 273.608 145.32 L 273.608 145.32 Q 273.608 146.09 274.378 146.09 L 274.378 146.09 L 298.468 146.09 L 298.468 160.5 L 274.378 160.5 L 274.378 160.5 Q 267.998 160.5 263.598 156.045 L 263.598 156.045 L 263.598 156.045 Q 259.198 151.59 259.198 145.32 L 259.198 145.32 L 259.198 75.8 L 273.608 75.8 L 273.608 96.7 L 298.468 96.7 L 298.468 96.7 Z  M 321.568 160.5 L 307.158 160.5 L 307.158 96.7 L 321.568 96.7 L 321.568 160.5 L 321.568 160.5 Z  M 307.158 90.32 L 307.158 75.8 L 321.568 75.8 L 321.568 90.32 L 307.158 90.32 L 307.158 90.32 Z  M 347.858 146.09 L 347.858 146.09 L 397.468 146.09 L 397.468 160.5 L 347.858 160.5 L 347.858 160.5 Q 341.588 160.5 337.133 156.045 L 337.133 156.045 L 337.133 156.045 Q 332.678 151.59 332.678 145.32 L 332.678 145.32 L 332.678 111.88 L 332.678 111.88 Q 332.678 105.61 337.133 101.155 L 337.133 101.155 L 337.133 101.155 Q 341.588 96.7 347.858 96.7 L 347.858 96.7 L 397.248 96.7 L 397.248 111.11 L 347.858 111.11 L 347.858 111.11 Q 347.088 111.11 347.088 111.88 L 347.088 111.88 L 347.088 145.32 L 347.088 145.32 Q 347.088 146.09 347.858 146.09 Z " fill="rgb(236,67,67)"/></g><path d=" M 424.308 88.7 L 424.308 88.7 L 458.738 88.7 L 458.738 88.7 Q 465.008 88.7 469.463 93.155 L 469.463 93.155 L 469.463 93.155 Q 473.918 97.61 473.918 103.88 L 473.918 103.88 L 473.918 137.32 L 473.918 137.32 Q 473.918 143.59 469.463 148.045 L 469.463 148.045 L 469.463 148.045 Q 465.008 152.5 458.738 152.5 L 458.738 152.5 L 424.308 152.5 L 424.308 152.5 Q 418.038 152.5 413.583 148.045 L 413.583 148.045 L 413.583 148.045 Q 409.128 143.59 409.128 137.32 L 409.128 137.32 L 409.128 103.88 L 409.128 103.88 Q 409.128 97.61 413.583 93.155 L 413.583 93.155 L 413.583 93.155 Q 418.038 88.7 424.308 88.7 Z  M 458.738 103.11 L 458.738 103.11 L 424.308 103.11 L 424.308 103.11 Q 423.538 103.11 423.538 103.88 L 423.538 103.88 L 423.538 137.32 L 423.538 137.32 Q 423.538 138.09 424.308 138.09 L 424.308 138.09 L 458.738 138.09 L 458.738 138.09 Q 459.508 138.09 459.508 137.32 L 459.508 137.32 L 459.508 103.88 L 459.508 103.88 Q 459.508 103.11 458.738 103.11 Z " fill="rgb(236,67,67)"/><path d=" M 114.878 88.59 L 114.878 88.59 L 114.878 94.75 L 100.248 94.75 L 100.248 88.59 L 100.248 88.59 Q 100.248 87.82 99.478 87.82 L 99.478 87.82 L 50.968 87.82 L 50.968 87.82 Q 50.198 87.82 50.198 88.59 L 50.198 88.59 L 50.198 137.21 L 50.198 137.21 Q 50.198 137.98 50.968 137.98 L 50.968 137.98 L 99.478 137.98 L 99.478 137.98 Q 100.248 137.98 100.248 137.21 L 100.248 137.21 L 100.248 122.25 L 82.318 122.25 L 82.318 107.73 L 114.878 107.73 L 114.878 137.21 L 114.878 137.21 Q 114.878 143.59 110.368 148.045 L 110.368 148.045 L 110.368 148.045 Q 105.858 152.5 99.478 152.5 L 99.478 152.5 L 50.968 152.5 L 50.968 152.5 Q 44.588 152.5 40.133 148.045 L 40.133 148.045 L 40.133 148.045 Q 35.678 143.59 35.678 137.21 L 35.678 137.21 L 35.678 88.59 L 35.678 88.59 Q 35.678 82.21 40.133 77.755 L 40.133 77.755 L 40.133 77.755 Q 44.588 73.3 50.968 73.3 L 50.968 73.3 L 99.478 73.3 L 99.478 73.3 Q 105.858 73.3 110.368 77.755 L 110.368 77.755 L 110.368 77.755 Q 114.878 82.21 114.878 88.59 Z  M 126.538 88.7 L 176.148 88.7 L 176.148 88.7 Q 182.418 88.7 186.873 93.155 L 186.873 93.155 L 186.873 93.155 Q 191.328 97.61 191.328 103.88 L 191.328 103.88 L 191.328 152.5 L 141.718 152.5 L 141.718 152.5 Q 135.448 152.5 130.993 148.045 L 130.993 148.045 L 130.993 148.045 Q 126.538 143.59 126.538 137.32 L 126.538 137.32 L 126.538 113.34 L 176.918 113.34 L 176.918 103.88 L 176.918 103.88 Q 176.918 103.11 176.148 103.11 L 176.148 103.11 L 126.538 103.11 L 126.538 88.7 L 126.538 88.7 Z  M 141.718 138.09 L 176.918 138.09 L 176.918 127.86 L 140.948 127.86 L 140.948 137.32 L 140.948 137.32 Q 140.948 138.09 141.718 138.09 L 141.718 138.09 L 141.718 138.09 Z  M 216.188 88.7 L 216.188 88.7 L 251.608 88.7 L 251.608 103.11 L 216.188 103.11 L 216.188 103.11 Q 215.418 103.11 215.418 103.88 L 215.418 103.88 L 215.418 152.5 L 201.008 152.5 L 201.008 103.88 L 201.008 103.88 Q 201.008 97.61 205.463 93.155 L 205.463 93.155 L 205.463 93.155 Q 209.918 88.7 216.188 88.7 Z  M 298.468 88.7 L 298.468 103.11 L 273.608 103.11 L 273.608 137.32 L 273.608 137.32 Q 273.608 138.09 274.378 138.09 L 274.378 138.09 L 298.468 138.09 L 298.468 152.5 L 274.378 152.5 L 274.378 152.5 Q 267.998 152.5 263.598 148.045 L 263.598 148.045 L 263.598 148.045 Q 259.198 143.59 259.198 137.32 L 259.198 137.32 L 259.198 67.8 L 273.608 67.8 L 273.608 88.7 L 298.468 88.7 L 298.468 88.7 Z  M 321.568 152.5 L 307.158 152.5 L 307.158 88.7 L 321.568 88.7 L 321.568 152.5 L 321.568 152.5 Z  M 307.158 82.32 L 307.158 67.8 L 321.568 67.8 L 321.568 82.32 L 307.158 82.32 L 307.158 82.32 Z  M 347.858 138.09 L 347.858 138.09 L 397.468 138.09 L 397.468 152.5 L 347.858 152.5 L 347.858 152.5 Q 341.588 152.5 337.133 148.045 L 337.133 148.045 L 337.133 148.045 Q 332.678 143.59 332.678 137.32 L 332.678 137.32 L 332.678 103.88 L 332.678 103.88 Q 332.678 97.61 337.133 93.155 L 337.133 93.155 L 337.133 93.155 Q 341.588 88.7 347.858 88.7 L 347.858 88.7 L 397.248 88.7 L 397.248 103.11 L 347.858 103.11 L 347.858 103.11 Q 347.088 103.11 347.088 103.88 L 347.088 103.88 L 347.088 137.32 L 347.088 137.32 Q 347.088 138.09 347.858 138.09 Z " fill="rgb(49,48,48)"/></g></svg>