<?xml version="1.0" encoding="UTF-8" standalone="no"?><!-- Generator: Gravit.io --><svg xmlns="http://www.w3.org/2000/svg" xmlns:xlink="http://www.w3.org/1999/xlink" style="isolation:isolate" viewBox="0 0 448 512" width="448pt" height="512pt"><defs><clipPath id="_clipPath_GgYOggspTBsqxZIO7ml7xisD6uH1Z932"><rect width="448" height="512"/></clipPath></defs><g clip-path="url(#_clipPath_GgYOggspTBsqxZIO7ml7xisD6uH1Z932)"><path d=" M 397.67 482.935 L 224 482.935 L 50.33 482.935 C 47.29 482.945 44.25 482.735 41.25 482.305 C 38.25 481.885 35.3 481.215 32.41 480.315 C 29.5 479.395 26.68 478.215 23.99 476.785 C 21.26 475.325 18.69 473.595 16.32 471.605 C 11.43 467.525 7.54 462.385 4.93 456.585 C 2.39 450.855 1.1 444.635 1.15 438.365 C 1.18 434.055 1.75 429.765 2.86 425.595 C 3.96 421.435 5.49 417.395 7.43 413.555 L 96.42 235.165 L 185.4 56.785 C 187.14 53.255 189.2 49.895 191.55 46.735 C 193.93 43.535 196.68 40.625 199.76 38.085 C 203.03 35.375 206.72 33.185 210.67 31.615 C 214.91 29.945 219.44 29.075 224 29.065 C 228.56 29.075 233.09 29.945 237.33 31.615 C 241.28 33.185 244.97 35.375 248.24 38.085 C 251.32 40.625 254.07 43.535 256.45 46.735 C 258.8 49.895 260.86 53.255 262.6 56.785 L 351.58 235.165 L 440.57 413.555 C 442.51 417.395 444.04 421.435 445.14 425.595 C 446.25 429.765 446.82 434.055 446.85 438.365 C 446.9 444.635 445.61 450.855 443.07 456.585 C 440.46 462.385 436.57 467.525 431.68 471.605 C 429.31 473.595 426.74 475.325 424.01 476.785 C 421.32 478.215 418.5 479.395 415.59 480.315 C 412.7 481.215 409.75 481.885 406.75 482.305 C 403.75 482.735 400.71 482.945 397.67 482.935 Z  M 400.49 436.735 C 400.43 436.745 400.38 436.755 400.32 436.755 C 399.47 436.875 398.62 436.935 397.77 436.935 C 397.74 436.935 397.72 436.935 397.7 436.935 L 224 436.935 L 50.3 436.935 C 50.28 436.935 50.26 436.935 50.23 436.935 C 49.38 436.935 48.53 436.875 47.68 436.755 C 47.62 436.755 47.57 436.745 47.51 436.735 C 47.77 435.885 48.11 435.055 48.51 434.265 C 48.53 434.225 48.55 434.185 48.57 434.145 L 137.58 255.705 L 224 82.465 L 310.42 255.705 L 399.43 434.145 C 399.45 434.185 399.47 434.225 399.49 434.265 C 399.89 435.055 400.23 435.885 400.49 436.735 Z " fill-rule="evenodd" fill="rgb(0,0,0)"/></g></svg>